<svg width="16" height="16" viewBox="0 0 16 16" fill="none" xmlns="http://www.w3.org/2000/svg">
<g clip-path="url(#clip0_611_5498)">
<path d="M7.99995 0.205078C12.305 0.205078 15.7948 3.69492 15.7948 7.99995C15.7948 12.305 12.305 15.7948 7.99995 15.7948C6.714 15.7948 5.50087 15.4832 4.43174 14.9317C4.36682 14.8983 4.29236 14.8876 4.22108 14.9031L0.754022 15.6562C0.527489 15.7054 0.329971 15.4958 0.392381 15.2727L1.27202 12.1261C1.29476 12.0447 1.2828 11.9578 1.24065 11.8846C0.58196 10.741 0.205078 9.41451 0.205078 7.99995C0.205078 3.69492 3.69492 0.205078 7.99995 0.205078Z" fill="#3B5CDE"/>
<path d="M7.98814 9.05469C6.60219 9.05469 5.43286 9.28115 5.43286 10.1552C5.43286 11.0296 6.60978 11.2481 7.98814 11.2481C9.37399 11.2481 10.5433 11.0217 10.5433 10.1476C10.5433 9.27325 9.3664 9.05469 7.98814 9.05469Z" fill="white"/>
<path d="M7.98809 8.22165C8.92645 8.22165 9.67896 7.46482 9.67896 6.52093C9.67896 5.57672 8.92645 4.82031 7.98809 4.82031C7.04963 4.82031 6.29712 5.57672 6.29712 6.52093C6.29712 7.46482 7.04963 8.22165 7.98809 8.22165Z" fill="white"/>
<path d="M11.6593 6.91634C11.902 5.96126 11.1902 5.10352 10.2838 5.10352C10.1852 5.10352 10.091 5.11439 9.99896 5.13285C9.98665 5.13572 9.97301 5.14187 9.96583 5.15275C9.95752 5.16649 9.96368 5.18495 9.9727 5.19685C10.2449 5.58105 10.4014 6.04885 10.4014 6.551C10.4014 7.03213 10.2579 7.48064 10.0061 7.85295C9.98019 7.89131 10.0033 7.943 10.0489 7.951C10.1122 7.96218 10.177 7.96803 10.2432 7.96977C10.9032 7.98721 11.4956 7.55993 11.6593 6.91634Z" fill="white"/>
<path d="M12.3507 9.16598C12.2298 8.907 11.9381 8.72936 11.4946 8.64218C11.2853 8.5908 10.7187 8.51849 10.1918 8.52823C10.1839 8.52936 10.1795 8.5347 10.1788 8.53839C10.1778 8.54341 10.1799 8.55213 10.1904 8.55757C10.4339 8.6787 11.3752 9.20577 11.2569 10.3175C11.2518 10.3656 11.2903 10.4072 11.3381 10.4C11.5698 10.3667 12.1658 10.2379 12.3507 9.83675C12.4529 9.62475 12.4529 9.37839 12.3507 9.16598Z" fill="white"/>
<path d="M6.01808 5.13285C5.92629 5.11408 5.83172 5.10352 5.73316 5.10352C4.8267 5.10352 4.1149 5.96126 4.35808 6.91633C4.52136 7.55992 5.11378 7.98721 5.77378 7.96977C5.84003 7.96803 5.90506 7.96187 5.96803 7.951C6.01367 7.943 6.03675 7.89131 6.0108 7.85295C5.75901 7.48034 5.61552 7.03213 5.61552 6.551C5.61552 6.04844 5.77234 5.58075 6.04465 5.19685C6.05326 5.18495 6.05972 5.16649 6.05111 5.15275C6.04393 5.14157 6.03059 5.13572 6.01808 5.13285Z" fill="white"/>
<path d="M4.52234 8.64193C4.07885 8.72911 3.78747 8.90675 3.66664 9.16573C3.56408 9.37814 3.56408 9.6245 3.66664 9.8368C3.85147 10.2376 4.44747 10.3669 4.67916 10.3997C4.72695 10.407 4.76511 10.3657 4.76008 10.3172C4.64172 9.20593 5.58306 8.67885 5.82695 8.55762C5.837 8.55188 5.83916 8.54357 5.83803 8.53814C5.83731 8.53444 5.83341 8.52901 5.82552 8.52829C5.29813 8.51824 4.73198 8.59055 4.52234 8.64193Z" fill="white"/>
</g>
<defs>
<clipPath id="clip0_611_5498">
<rect width="16" height="16" fill="white"/>
</clipPath>
</defs>
</svg>
