<svg width="19" height="20" viewBox="0 0 19 20" fill="none" xmlns="http://www.w3.org/2000/svg">
<path d="M12.3077 5.39167C12.3924 5.36344 12.4347 5.40579 12.4912 5.46224C12.8017 5.8151 13.8179 7.04305 14.0861 7.38179C14.1426 7.43825 14.1002 7.50882 14.0579 7.53705C12.0254 9.11786 9.76711 11.362 8.51094 12.9711C8.48271 12.9993 8.51094 13.0134 8.52505 12.9993C10.7128 12.0536 15.8786 10.5434 18.1934 10.12V7.18419L9.10374 0L0 7.18419V10.4023C2.82287 8.72265 9.34368 6.12562 12.3077 5.39167Z" fill="#006BFF"/>
<path d="M4.91179 17.7417C4.84121 17.7841 4.77064 17.77 4.71418 17.7135L3.02047 15.6951C2.97812 15.6387 2.96401 15.6105 3.03458 15.5258C4.3331 13.5921 7.01482 10.5999 8.72265 9.3437C8.75088 9.31547 8.75088 9.30136 8.70854 9.31547C6.93013 9.89416 1.87721 12.0678 0 13.1263V20H18.1934V13.3804C15.7092 13.7897 8.28511 16.0057 4.91179 17.7417Z" fill="#006BFF"/>
</svg>
